<?xml version="1.0" encoding="utf-8"?>
<!-- Generator: Adobe Illustrator 23.0.1, SVG Export Plug-In . SVG Version: 6.00 Build 0)  -->
<svg version="1.1" xmlns="http://www.w3.org/2000/svg" xmlns:xlink="http://www.w3.org/1999/xlink" x="0px" y="0px"
	 viewBox="0 0 396 99.3" style="enable-background:new 0 0 396 99.3;" xml:space="preserve">
<style type="text/css">
	.st0{fill:#FFFFFF;}
</style>
<g id="Wort_x5F_Bildmarke">
	<g id="Bildmarke_16_">
		<polygon class="st0" points="22.5,60.2 71.2,56.3 71.2,48.2 22.5,53.1 		"/>
		<polygon class="st0" points="22.5,91.3 71.2,91.3 71.2,81.2 22.5,82.1 		"/>
		<polygon class="st0" points="22.5,75.1 71.2,73.2 71.2,63.8 22.5,66.7 		"/>
		<polygon class="st0" points="0.3,30 71.2,15.9 71.2,10.2 0.3,25.7 		"/>
		<polygon class="st0" points="0.3,18.6 0.3,22.1 71.2,5.2 71.2,0.3 		"/>
		<polygon class="st0" points="0.3,39.2 71.2,27.9 71.2,21.6 0.3,34.4 		"/>
		<polygon class="st0" points="0.3,49.8 71.2,41.3 71.2,34.1 0.3,44.1 		"/>
	</g>
	<g id="Logozusatz_3_">
		<path class="st0" d="M141.9,65.6v2.8c0,0-2.6-2.3-8.7-2.3c-6.7,0-10.6,4.4-10.6,11.3c0,6.9,3.7,11.6,11.2,11.6c3.8,0,6-0.6,6-0.6
			v-6.3h-7.3v-2.4h10.1v9.3c0,0-2.9,2.9-9.3,2.9c-9.1,0-13.7-6.2-13.7-14.3c0-8.4,5.4-14.2,13.5-14.2
			C139.3,63.2,141.9,65.6,141.9,65.6z"/>
		<path class="st0" d="M159.3,72v2.5h-1.4c-4.2,0-6.5,2.9-6.5,6.6v10.2h-2.9V72.4l2.9-0.7v4.2c1.2-2.5,3.5-4.2,6.3-4.2
			C158.5,71.7,159.3,72,159.3,72z"/>
		<path class="st0" d="M179.6,81.4c0,6-3.8,10.4-9.5,10.4c-5.5,0-9.2-4.1-9.2-9.9c0-6,3.7-10.4,9.4-10.4
			C176,71.6,179.6,75.6,179.6,81.4z M163.8,81.8c0,4.5,2.4,7.4,6.3,7.4c4.5,0,6.6-3.5,6.6-7.8c0-4.4-2.5-7.4-6.4-7.4
			C165.8,74,163.8,77.5,163.8,81.8z"/>
		<path class="st0" d="M199.9,71.8v19.6h-2.8V88c-1.4,2.4-3.6,3.7-6.2,3.7c-4.5,0-6.5-2.8-6.5-7.1V72.4l2.9-0.7v12.7
			c0,3.2,1.4,4.7,4.1,4.7c3.3,0,5.8-2.6,5.8-7.6v-9.2L199.9,71.8z"/>
		<path class="st0" d="M222.5,81.1c0,5.9-3.8,10.6-9.6,10.6c-2.2,0-4-0.9-4.5-1.1v8.7h-2.8V72.4l2.8-0.7v3.6
			c1.3-2.3,3.6-3.7,6.4-3.7C219.9,71.7,222.5,75.6,222.5,81.1z M219.7,81.2c0-4.7-2.2-6.9-5.3-6.9c-3.7,0-5.9,2.8-5.9,6.8v7.2
			c0.4,0.2,2,0.9,4.5,0.9C217.3,89.1,219.7,85.9,219.7,81.2z"/>
	</g>
	<g id="Wortmarke_9_">
		<path class="st0" d="M147.3,24.4V46h-8v-4.6c-2.4,3.3-6.5,5.2-10.8,5.2c-5.1,0-8.5-2.8-8.5-7.7c0-7.6,8.2-11.9,19.3-11.9v-1.2
			c0-3.1-1.7-5-6.2-5c-7,0-11.8,4-11.8,4v-7.4c0,0,4-4,13.1-4C143.2,13.6,147.3,17.4,147.3,24.4z M139.3,33.3v-1.5
			c-7.4,0-10.9,2.9-10.9,6.1c0,1.7,1.2,2.9,3.3,2.9C135.4,40.7,139.3,37.7,139.3,33.3z"/>
		<path class="st0" d="M162.6,46h-9.1V2.1l9.1-1.8V46z"/>
		<path class="st0" d="M178.1,46H169V2.1l9.1-1.8V46z"/>
		<path class="st0" d="M211.6,11.9v2.3h9.9v6.3h-9.9V46h-9V20.5h-4.5v-6.3h4.5v-2.3c0-7.5,4.5-11.9,12.1-11.9c5.4,0,7.4,1.7,7.4,1.7
			v5.8c0,0-2.2-1-5.2-1C213.3,6.5,211.6,8.5,211.6,11.9z"/>
		<path class="st0" d="M253.9,29.7c0,10.4-6.4,17.1-16.1,17.1c-9.9,0-15.8-6.4-15.8-16.4c0-10.4,6.5-16.9,16-16.9
			C247.9,13.5,253.9,19.8,253.9,29.7z M230.8,30.4c0,6.1,2.6,9.7,7,9.7c5.1,0,7.3-4.2,7.3-10.1c0-6-2.7-9.8-7.1-9.8
			C233,20.2,230.8,24.5,230.8,30.4z"/>
		<path class="st0" d="M280.5,14.1v7.8h-2.4c-6.5,0-10,4.5-10,10V46h-8.8V15.3l8.8-1.7v7.8c1.9-4.6,5.2-7.8,9.7-7.8
			C279.7,13.6,280.5,14.1,280.5,14.1z"/>
		<path class="st0" d="M329.5,29.7c0,10.4-6.4,17.1-16.1,17.1c-9.9,0-15.8-6.4-15.8-16.4c0-10.4,6.5-16.9,16-16.9
			C323.5,13.5,329.5,19.8,329.5,29.7z M306.4,30.4c0,6.1,2.6,9.7,7,9.7c5.1,0,7.3-4.2,7.3-10.1c0-6-2.7-9.8-7.1-9.8
			C308.7,20.2,306.4,24.5,306.4,30.4z"/>
		<path class="st0" d="M363.2,24.7V46h-8.9V26.5c0-3.5-1.5-5.4-4.5-5.4c-3.7-0.1-6.2,3-6.2,8.8v16h-8.7V15.4l8.7-1.8v5.7
			c2.2-3.7,5.7-5.8,9.8-5.8C360.4,13.6,363.2,18.1,363.2,24.7z"/>
		<path class="st0" d="M386.6,39.6c5.8,0,9.3-2.6,9.3-2.6v6.2c0,0-3.5,3.5-11.3,3.5c-10.8,0-16.4-6.5-16.4-16.1
			c0-9.8,5.8-17,15.3-17c7.9,0,12.8,4.7,12.8,12.3c0,3.3-1.1,5.6-1.1,5.6h-18.7C377.2,36.8,380.5,39.6,386.6,39.6z M376.6,26.7h12
			c-0.1-4.5-1.9-6.7-5.3-6.7C379.7,19.9,377.3,22.4,376.6,26.7z"/>
	</g>
</g>
<g id="Logo_x5F_Grid">
</g>
</svg>
